<?xml version="1.0" encoding="UTF-8"?>
<svg width="172px" height="19px" viewBox="0 0 172 19" version="1.1" xmlns="http://www.w3.org/2000/svg" xmlns:xlink="http://www.w3.org/1999/xlink">
    <!-- Generator: Sketch 49.3 (51167) - http://www.bohemiancoding.com/sketch -->
    <title>Group 4</title>
    <desc>Created with Sketch.</desc>
    <defs></defs>
    <g id="Page-1" stroke="none" stroke-width="1" fill="none" fill-rule="evenodd">
        <g id="Help-Center" transform="translate(-256.000000, -60.000000)">
            <g id="Group-4" transform="translate(256.000000, 60.000000)">
                <path d="M6.0470592,11.1453421 L8.09670505,13.9228788 L10.1478319,11.1460825 L6.04631872,11.1460825 L6.0470592,11.1453421 Z M11.4303415,12.9202702 L8.09670505,17.4964304 L4.76454957,12.9202702 L0.760779647,7.49626156 L3.35319661,7.49626156 L4.71715892,9.34449713 L11.4777321,9.34449713 L12.8416945,7.49626156 L15.4341114,7.49626156 L11.4303415,12.9202702 Z M15.9191252,4.90236364 L15.9191252,5.86498635 L13.6717714,5.86498635 L13.6717714,4.90236364 L13.6732524,4.90236364 C13.6732524,3.66132085 12.6528723,2.6128026 11.4458915,2.6128026 C10.2138094,2.61647742 9.21730011,3.61696216 9.21853071,4.84904916 L6.97487938,4.84904916 C6.97611099,3.61725028 5.98005175,2.61688484 4.74825904,2.6128026 C3.54201875,2.6128026 2.5216387,3.66132085 2.5216387,4.90236364 L2.5216387,5.86498635 L0.27872782,5.86498635 L0.27872782,4.90236364 C0.27872782,3.70426863 0.740786713,2.57133577 1.57974941,1.71089918 C2.40865068,0.848691591 3.55297311,0.361285097 4.7489995,0.361005971 C6.08038075,0.361005971 7.27773529,0.949686771 8.09670505,1.88046887 C8.94222161,0.914919339 10.1632053,0.361104465 11.446632,0.361005971 C12.6426409,0.361370797 13.7869312,0.84876359 14.6158821,1.71089918 C15.4513821,2.56288881 15.9186315,3.70907259 15.9169037,4.90236364 L15.9198656,4.90236364 L15.9191252,4.90236364 Z" id="path-1" fill="#FFFFFF" fill-rule="nonzero"></path>
                <path d="M25.6390211,0.987182647 L25.6390211,17.9871826" id="Line" stroke="#FFFFFF" opacity="0.498584692" stroke-linecap="square"></path>
                <path d="M37.7230211,14.4871826 L37.7230211,3.28718265 L38.9870211,3.28718265 L38.9870211,8.26318265 L45.4510211,8.26318265 L45.4510211,3.28718265 L46.7150211,3.28718265 L46.7150211,14.4871826 L45.4510211,14.4871826 L45.4510211,9.44718265 L38.9870211,9.44718265 L38.9870211,14.4871826 L37.7230211,14.4871826 Z M51.8830211,14.4871826 L51.8830211,3.28718265 L59.9790211,3.28718265 L59.9790211,4.43918265 L53.1470211,4.43918265 L53.1470211,8.26318265 L59.2590211,8.26318265 L59.2590211,9.41518265 L53.1470211,9.41518265 L53.1470211,13.3351826 L60.0590211,13.3351826 L60.0590211,14.4871826 L51.8830211,14.4871826 Z M64.6030211,14.4871826 L64.6030211,3.28718265 L65.8670211,3.28718265 L65.8670211,13.3191826 L72.1710211,13.3191826 L72.1710211,14.4871826 L64.6030211,14.4871826 Z M76.5070211,14.4871826 L76.5070211,3.28718265 L80.6990211,3.28718265 C83.2270211,3.28718265 84.8910211,4.63118265 84.8910211,6.83918265 L84.8910211,6.87118265 C84.8910211,9.28718265 82.8750211,10.5351826 80.4910211,10.5351826 L77.7710211,10.5351826 L77.7710211,14.4871826 L76.5070211,14.4871826 Z M77.7710211,9.38318265 L80.5390211,9.38318265 C82.3950211,9.38318265 83.6110211,8.39118265 83.6110211,6.91918265 L83.6110211,6.88718265 C83.6110211,5.28718265 82.4110211,4.45518265 80.6030211,4.45518265 L77.7710211,4.45518265 L77.7710211,9.38318265 Z M101.115021,14.6791826 C97.8830211,14.6791826 95.4990211,12.1351826 95.4990211,8.91918265 L95.4990211,8.88718265 C95.4990211,5.71918265 97.8670211,3.09518265 101.163021,3.09518265 C103.195021,3.09518265 104.411021,3.81518265 105.531021,4.87118265 L104.667021,5.79918265 C103.723021,4.90318265 102.667021,4.26318265 101.147021,4.26318265 C98.6670211,4.26318265 96.8110211,6.27918265 96.8110211,8.85518265 L96.8110211,8.88718265 C96.8110211,11.4791826 98.6830211,13.5111826 101.147021,13.5111826 C102.683021,13.5111826 103.691021,12.9191826 104.763021,11.8951826 L105.595021,12.7111826 C104.427021,13.8951826 103.147021,14.6791826 101.115021,14.6791826 Z M109.803021,14.4871826 L109.803021,3.28718265 L117.899021,3.28718265 L117.899021,4.43918265 L111.067021,4.43918265 L111.067021,8.26318265 L117.179021,8.26318265 L117.179021,9.41518265 L111.067021,9.41518265 L111.067021,13.3351826 L117.979021,13.3351826 L117.979021,14.4871826 L109.803021,14.4871826 Z M122.523021,14.4871826 L122.523021,3.28718265 L123.707021,3.28718265 L130.763021,12.2631826 L130.763021,3.28718265 L131.995021,3.28718265 L131.995021,14.4871826 L130.987021,14.4871826 L123.755021,5.30318265 L123.755021,14.4871826 L122.523021,14.4871826 Z M140.123021,14.4871826 L140.123021,4.45518265 L136.363021,4.45518265 L136.363021,3.28718265 L145.163021,3.28718265 L145.163021,4.45518265 L141.403021,4.45518265 L141.403021,14.4871826 L140.123021,14.4871826 Z M149.531021,14.4871826 L149.531021,3.28718265 L157.627021,3.28718265 L157.627021,4.43918265 L150.795021,4.43918265 L150.795021,8.26318265 L156.907021,8.26318265 L156.907021,9.41518265 L150.795021,9.41518265 L150.795021,13.3351826 L157.707021,13.3351826 L157.707021,14.4871826 L149.531021,14.4871826 Z M162.251021,14.4871826 L162.251021,3.28718265 L167.067021,3.28718265 C168.443021,3.28718265 169.547021,3.70318265 170.251021,4.40718265 C170.795021,4.95118265 171.115021,5.73518265 171.115021,6.61518265 L171.115021,6.64718265 C171.115021,8.50318265 169.835021,9.59118265 168.075021,9.91118265 L171.515021,14.4871826 L169.963021,14.4871826 L166.715021,10.1351826 L163.515021,10.1351826 L163.515021,14.4871826 L162.251021,14.4871826 Z M163.515021,8.99918265 L166.955021,8.99918265 C168.635021,8.99918265 169.835021,8.13518265 169.835021,6.69518265 L169.835021,6.66318265 C169.835021,5.28718265 168.779021,4.45518265 166.971021,4.45518265 L163.515021,4.45518265 L163.515021,8.99918265 Z" id="HELP-CENTER" fill="#FFFFFF"></path>
            </g>
        </g>
    </g>
</svg>