<svg width="172" height="19" viewBox="0 0 172 19" xmlns="http://www.w3.org/2000/svg"><title>Group 4</title><g id="Page-1" fill="none" fill-rule="evenodd"><g id="Help-Center" transform="translate(-256 -60)"><g id="Group-4" transform="translate(256 60)"><path d="M6.047 11.145l2.05 2.778 2.05-2.777h-4.1zm5.383 1.775l-3.333 4.576-3.332-4.576L.76 7.496h2.592l1.364 1.848h6.76l1.365-1.848h2.592L11.43 12.92zm4.49-8.018v.963h-2.248v-.963h.001c0-1.24-1.02-2.29-2.227-2.29A2.234 2.234 0 0 0 9.219 4.85H6.975a2.234 2.234 0 0 0-2.227-2.236c-1.206 0-2.226 1.048-2.226 2.29v.962H.279v-.963a4.55 4.55 0 0 1 1.3-3.191A4.398 4.398 0 0 1 4.75.36a4.45 4.45 0 0 1 3.348 1.52 4.453 4.453 0 0 1 3.35-1.52c1.196 0 2.34.488 3.169 1.35a4.549 4.549 0 0 1 1.3 3.191h.004z" id="path-1" fill="#FFF" fill-rule="nonzero"/><path d="M25.639.987v17" id="Line" stroke="#FFF" opacity=".499" stroke-linecap="square"/><path d="M37.723 14.487v-11.2h1.264v4.976h6.464V3.287h1.264v11.2h-1.264v-5.04h-6.464v5.04h-1.264zm14.16 0v-11.2h8.096V4.44h-6.832v3.824h6.112v1.152h-6.112v3.92h6.912v1.152h-8.176zm12.72 0v-11.2h1.264V13.32h6.304v1.168h-7.568zm11.904 0v-11.2h4.192c2.528 0 4.192 1.344 4.192 3.552v.032c0 2.416-2.016 3.664-4.4 3.664h-2.72v3.952h-1.264zm1.264-5.104h2.768c1.856 0 3.072-.992 3.072-2.464v-.032c0-1.6-1.2-2.432-3.008-2.432h-2.832v4.928zm23.344 5.296c-3.232 0-5.616-2.544-5.616-5.76v-.032c0-3.168 2.368-5.792 5.664-5.792 2.032 0 3.248.72 4.368 1.776l-.864.928c-.944-.896-2-1.536-3.52-1.536-2.48 0-4.336 2.016-4.336 4.592v.032c0 2.592 1.872 4.624 4.336 4.624 1.536 0 2.544-.592 3.616-1.616l.832.816c-1.168 1.184-2.448 1.968-4.48 1.968zm8.688-.192v-11.2h8.096V4.44h-6.832v3.824h6.112v1.152h-6.112v3.92h6.912v1.152h-8.176zm12.72 0v-11.2h1.184l7.056 8.976V3.287h1.232v11.2h-1.008l-7.232-9.184v9.184h-1.232zm17.6 0V4.455h-3.76V3.287h8.8v1.168h-3.76v10.032h-1.28zm9.408 0v-11.2h8.096V4.44h-6.832v3.824h6.112v1.152h-6.112v3.92h6.912v1.152h-8.176zm12.72 0v-11.2h4.816c1.376 0 2.48.416 3.184 1.12.544.544.864 1.328.864 2.208v.032c0 1.856-1.28 2.944-3.04 3.264l3.44 4.576h-1.552l-3.248-4.352h-3.2v4.352h-1.264zM163.515 9h3.44c1.68 0 2.88-.864 2.88-2.304v-.032c0-1.376-1.056-2.208-2.864-2.208h-3.456V9z" id="HELP-CENTER" fill="#FFF"/></g></g></g></svg>