<svg aria-hidden="true" style="position: absolute; width: 0; height: 0; overflow: hidden;" version="1.1" xmlns="http://www.w3.org/2000/svg" xmlns:xlink="http://www.w3.org/1999/xlink">
<defs>
<symbol id="icon-external-link" viewBox="0 0 32 32">
<title>external-link</title>
<path d="M27.355 16.837v9.064c0 2.568-1.964 4.532-4.532 4.532h-16.618c-2.568 0-4.532-1.964-4.532-4.532v-16.618c0-2.568 1.964-4.532 4.532-4.532h9.064c0.906 0 1.511 0.604 1.511 1.511s-0.604 1.511-1.511 1.511h-9.064c-0.906 0-1.511 0.604-1.511 1.511v16.618c0 0.906 0.604 1.511 1.511 1.511h16.618c0.906 0 1.511-0.604 1.511-1.511v-9.064c0-0.906 0.604-1.511 1.511-1.511s1.511 0.604 1.511 1.511zM31.737 1.125c-0.151-0.302-0.453-0.604-0.755-0.755-0.151-0.151-0.453-0.151-0.604-0.151h-9.064c-0.906 0-1.511 0.604-1.511 1.511s0.604 1.511 1.511 1.511h5.439l-14.050 14.050c-0.604 0.604-0.604 1.511 0 2.115 0.302 0.302 0.604 0.453 1.057 0.453s0.755-0.151 1.058-0.453l14.050-14.050v5.439c0 0.906 0.604 1.511 1.511 1.511s1.511-0.604 1.511-1.511v-9.064c0-0.151 0-0.453-0.151-0.604z"></path>
</symbol>
<symbol id="icon-thumbs-down" viewBox="0 0 32 32">
<title>thumbs-down</title>
<path d="M31.298 5.092c-0.282-2.376-2.254-4.053-4.65-4.053 0 0 0 0-0.141 0h-19.585c0 0 0 0 0 0-2.114 0-3.804 1.537-4.227 3.494l-1.973 12.579c-0.282 2.236 1.268 4.473 3.523 4.752 0.282 0 0.423 0 0.705 0h6.622v4.193c0 3.075 2.536 5.591 5.636 5.591 0.564 0 1.127-0.28 1.268-0.839l5.213-11.74h2.818c2.395 0 4.368-1.677 4.65-4.053 0 0 0-0.14 0-0.14v-9.644c0.141 0 0.141-0.14 0.141-0.14zM21.435 17.531l-5.072 11.321c-1.127-0.419-1.973-1.398-1.973-2.656v-5.591c0-0.839-0.564-1.398-1.409-1.398h-8.031c0 0-0.141 0-0.282 0-0.704-0.14-1.268-0.839-1.127-1.537l1.973-12.579c0.141-0.699 0.705-1.258 1.409-1.258 0 0 0 0 0 0h14.513v13.697zM28.48 14.876c-0.141 0.839-0.986 1.537-1.832 1.537h-2.395v-12.579h2.395c0 0 0 0 0 0 0.845 0 1.691 0.699 1.832 1.537v9.504z"></path>
</symbol>
<symbol id="icon-thumbs-up" viewBox="0 0 31 32">
<title>thumbs-up</title>
<path d="M29.728 12.448c-0.704-0.835-1.691-1.53-2.818-1.67-0.282 0-0.423 0-0.704 0h-6.481v-4.174c0-3.061-2.536-5.565-5.636-5.565-0.564 0-1.127 0.278-1.268 0.835l-5.213 11.687h-3.381c-2.395 0-4.227 1.809-4.227 4.174v9.739c0 2.365 1.832 4.174 4.227 4.174h20.148c0 0 0 0 0 0 2.113 0 3.804-1.53 4.227-3.478l1.972-12.522c0.141-1.113-0.141-2.226-0.845-3.2zM7.045 28.865h-2.818c-0.845 0-1.409-0.557-1.409-1.391v-9.739c0-0.835 0.564-1.391 1.409-1.391h2.818v12.522zM25.783 27.752c-0.141 0.696-0.704 1.113-1.409 1.113h-14.512v-13.635l5.072-11.27c1.127 0.417 1.972 1.391 1.972 2.643v5.565c0 0.835 0.564 1.391 1.409 1.391h8.031c0.141 0 0.141 0 0.282 0 0.423 0 0.704 0.278 0.986 0.557s0.282 0.696 0.282 0.974l-2.113 12.661z"></path>
</symbol>
</defs>
</svg>
